# xmcd
#
# Track frame offsets: 
#        150
#        21007
#        38482
#        57139
#        73816
#        93974
#        116173
#        142662
#        160902
#        177827
#        193897
#
# Disc length: 2917 seconds
#
# Revision: 0
# Processed by: cddbd v1.5.1PL0 Copyright (c) Steve Scherf et al.
# Submitted via: ExactAudioCopy v0.95a5
#
DISCID=8d0b630b
DTITLE=Johnnie Marshall - Live For Today
DYEAR=1998
DGENRE=Blues
TTITLE0=Let's Hope Out Love Is Not A Mistake
TTITLE1=On My Way To Memphis
TTITLE2=Johnnie's Jam
TTITLE3=Live For Today
TTITLE4=Jodi Man
TTITLE5=Not Like This Before
TTITLE6=4 O'Clock In The Morning
TTITLE7=Dave's C.C. Groove
TTITLE8=Love To Play Them Blues
TTITLE9=Crazy 'bout My Woman
TTITLE10=Sweetest Thing I Know
EXTD=
EXTT0=
EXTT1=
EXTT2=
EXTT3=
EXTT4=
EXTT5=
EXTT6=
EXTT7=
EXTT8=
EXTT9=
EXTT10=
PLAYORDER=
